<svg xmlns="http://www.w3.org/2000/svg" version="1.1" viewBox="0 0 1000 1000">
  <path class="svg-font" d="M930 308.6c-47.8 212.2-195.4 324.2-428 324.2h-77.4l-53.8 341.6h-64.8l-3.4 22c-2.2 14.6 9 27.6 23.6 27.6h165.6c19.6 0 36.2-14.2 39.4-33.6l1.6-8.4 31.2-197.8 2-10.8c3-19.4 19.8-33.6 39.4-33.6h24.6c160.4 0 286-65.2 322.8-253.6 13.8-71.6 8.6-132.4-22.8-177.6z" />
  <path class="svg-font" d="M831 77.2c-47.4-54-133.2-77.2-242.8-77.2h-318.2c-22.4 0-41.6 16.2-45 38.4l-132.6 840.4c-2.6 16.6 10.2 31.6 27 31.6h196.6l49.4-313-1.6 9.8c3.4-22.2 22.4-38.4 44.8-38.4h93.4c183.4 0 327-74.4 369-290 1.2-6.4 2.4-12.6 3.2-18.6 12.4-79.6 0-134-43.2-183z" />
</svg>
