<svg xmlns="http://www.w3.org/2000/svg" version="1.1" viewBox="0 0 1000 1000">
  <path class="svg-font" d="M320 768v-768h-128v768h-160l224 224 224-224h-160z" />
  <path class="svg-font" d="M864 1024c-17.674 0-32-14.328-32-32v-352h-32c-17.674 0-32-14.328-32-32s14.326-32 32-32h64c17.674 0 32 14.328 32 32v384c0 17.672-14.326 32-32 32z" />
  <path class="svg-font" d="M928 0h-192c-17.674 0-32 14.326-32 32v192c0 17.674 14.326 32 32 32h160v128h-160c-17.674 0-32 14.326-32 32s14.326 32 32 32h192c17.674 0 32-14.326 32-32v-384c0-17.674-14.326-32-32-32zM768 64h128v128h-128v-128z" />
</svg>
